<svg height="21" viewBox="0 0 960 960" width="21" xmlns="http://www.w3.org/2000/svg">
<style>
    .colour1 { fill: #0091ff; }
    .colour2 { fill: #00ccff; }
  </style>
<g>
<path class="colour1" d="m463.2,216.48c58.5,0 94.47,43.11 97.5,103.57l0,8l0,93.79l96.2,18.22c3.9,0.44 7.37,1.33 11.26,2.22c72.37,20 116.57,94.67 101.39,168.91l-1.73,8l-45.5,174.69c-9.53,36 -37.7,63.56 -73.23,71.56l-6.94,1.33l-104.86,15.56c-40.3,5.78 -79.3,-14.22 -98.8,-49.79l-3.47,-7.11l-1.3,-2.66c-10.4,-22.67 -25.57,-42.22 -44.64,-56.9l-8.24,-6.22l-81.47,-56.01l-4.34,-2.66l0,0l-4.34,-2.22l-102.26,-52.01c-10.83,-5.78 -17.77,-16.89 -17.77,-29.34c-1.3,-49.33 19.93,-87.12 61.1,-108.46c30.76,-15.56 71.06,-14.67 122.63,0.89l11.26,3.56l0,-185.35c0,-64.45 36.4,-111.57 97.5,-111.57l0.02,-0.01zm0,66.67c-19.93,0 -30.76,12 -32.5,38.67l0,6.22l0,232.91c0,24 -23.4,40.01 -45.07,31.11c-63.27,-27.12 -105.73,-33.34 -124.36,-23.56c-11.26,5.78 -18.2,12.89 -22.1,23.11l-1.73,5.33l82.33,42.22l7.8,4.45l0,0l7.8,4.45l81.47,56.01c29.46,20 53.73,47.56 70.63,79.57l5.2,11.11l1.3,2.66c5.2,12 16.9,19.11 29.46,19.11l4.34,0l104.86,-15.56c11.26,-1.77 20.8,-9.34 25.14,-20l1.73,-4.45l45.5,-174.24c10.83,-41.78 -13.43,-84.45 -53.73,-95.56l-3.03,-0.44l0,0l-125.66,-23.56c-14.3,-2.66 -24.7,-14.22 -26.44,-28l-0.43,-4.89l0,-121.79c0,-30.67 -10.83,-44.9 -32.5,-44.9l0,0.02z"/>
<path class="colour2" d="m463.81,60.98c137.36,0 249.16,114.24 249.16,255.58c0,31.11 -5.64,61.34 -15.6,88.9l-6.07,-2.22c-6.5,-2.22 -15.16,-5.33 -26.44,-8c-10.4,-2.22 -20.8,-4 -31.63,-4.89c9.53,-22.67 14.73,-47.56 14.73,-73.79c0,-104.46 -82.33,-188.9 -184.17,-188.9c-101.83,0 -184.17,84.45 -184.17,188.9c0,46.23 16.03,88.9 43.34,121.79c-13.86,1.33 -26,3.12 -35.53,5.33c-15.6,4 -25.57,7.55 -32.93,12c-25.14,-40.01 -39.87,-88.01 -39.87,-139.13c0,-141.35 111.37,-255.58 249.16,-255.58l0.01,0.01z"/>
</g>
</svg>
